<?xml version="1.0" encoding="UTF-8" standalone="no"?>
<svg xmlns="http://www.w3.org/2000/svg" width="64" height="64" viewBox="0 0 64 64">
    <rect x="4" y="4" width="56" height="56" fill="#ffd600" rx="2" ry="2" />
    <rect x="32" y="32" width="6" height="6" fill="#fff" />
    <rect x="38" y="32" width="6" height="6" fill="#000" />
    <rect x="44" y="32" width="6" height="6" fill="#fff" />
    <rect x="50" y="32" width="6" height="6" fill="#000" />
    <rect x="32" y="38" width="6" height="6" fill="#000" />
    <rect x="38" y="38" width="6" height="6" fill="#fff" />
    <rect x="44" y="38" width="6" height="6" fill="#000" />
    <rect x="50" y="38" width="6" height="6" fill="#fff" />
    <rect x="32" y="44" width="6" height="6" fill="#fff" />
    <rect x="38" y="44" width="6" height="6" fill="#000" />
    <rect x="44" y="44" width="6" height="6" fill="#fff" />
    <rect x="50" y="44" width="6" height="6" fill="#000" />
    <rect x="32" y="50" width="6" height="6" fill="#000" />
    <rect x="38" y="50" width="6" height="6" fill="#fff" />
    <rect x="44" y="50" width="6" height="6" fill="#000" />
    <rect x="50" y="50" width="6" height="6" fill="#fff" />
</svg>
